<svg version="1.1" id="Layer_1" xmlns="http://www.w3.org/2000/svg" xmlns:xlink="http://www.w3.org/1999/xlink" x="0px" y="0px"
	 width="100%" viewBox="0 0 72 72" enable-background="new 0 0 72 72" xml:space="preserve">
<path fill="#000000" opacity="1.000000" stroke="none" 
	d="
M73.000000,31.000000 
	C73.000000,44.914371 73.000000,58.828747 73.000000,73.000000 
	C63.313950,73.000000 53.625633,73.000000 43.389591,72.648376 
	C46.547085,69.554367 49.379581,66.122002 49.646446,61.395893 
	C49.772839,59.157513 48.403999,56.857811 48.398636,54.584274 
	C48.385788,49.130779 48.644981,43.665115 49.100651,38.230038 
	C49.216839,36.844231 50.505611,35.569771 51.201962,34.216534 
	C52.267735,32.145401 53.286911,30.050289 54.224911,28.167955 
	C49.339615,30.260807 45.168079,32.047886 41.010941,33.444771 
	C43.932903,25.089811 42.206501,16.211929 36.947620,12.085203 
	C30.938017,17.097904 30.057671,28.542009 34.953861,35.270489 
	C29.702892,37.654835 24.153477,39.033329 21.699532,45.060806 
	C21.489870,45.616798 21.494324,46.043385 21.498777,46.469967 
	C21.856960,46.177132 22.215141,45.884293 22.842804,45.416687 
	C23.851238,44.730076 24.590197,44.218231 25.999887,43.241806 
	C25.999887,45.812973 26.103876,47.592812 25.981003,49.356850 
	C25.559118,55.413616 26.265490,61.227921 29.774855,66.363319 
	C31.359821,68.682663 33.248894,70.794189 35.000000,73.000000 
	C23.732313,73.000000 12.464624,73.000000 1.000000,73.000000 
	C1.000000,59.313068 1.000000,45.625191 1.386835,31.349003 
	C4.307721,35.412094 6.841771,40.063503 9.554353,44.920990 
	C10.305966,45.370415 10.879049,45.613766 11.452131,45.857113 
	C11.543859,45.694382 11.635586,45.531651 11.727313,45.368916 
	C11.179928,44.887878 10.632543,44.406837 10.032214,43.559517 
	C5.471951,35.967426 5.071994,28.811691 10.564558,21.905052 
	C15.807277,15.312582 22.620363,11.986971 31.070469,10.713791 
	C42.766235,8.951589 52.926235,11.425129 61.843391,19.007418 
	C68.212318,24.422934 69.587982,31.370668 65.990105,38.941090 
	C64.920959,41.190720 63.594109,43.317879 62.385345,45.501156 
	C67.426674,43.117462 69.518570,38.781715 71.034691,33.978737 
	C71.379074,32.887745 72.328865,31.987852 73.000000,31.000000 
z"/>
<path fill="#AA4400" opacity="1.000000" stroke="none" 
	d="
M9.375822,44.714909 
	C6.841771,40.063503 4.307721,35.412094 1.386835,30.880344 
	C1.000000,29.933331 1.000000,28.866661 1.392591,27.495827 
	C2.046758,27.001410 2.510327,26.839058 2.541009,26.616915 
	C4.311588,13.797671 12.844111,7.198570 24.079651,3.000807 
	C24.860016,2.709251 25.366274,1.684038 26.000000,1.000000 
	C33.354252,1.000000 40.708500,1.000000 48.398556,1.362464 
	C49.218700,2.125518 49.640663,2.685182 50.196606,2.903180 
	C61.010746,7.143673 69.653290,13.315820 71.203461,26.007980 
	C71.252052,26.405861 72.376900,26.672289 73.000000,27.000000 
	C73.000000,28.066669 73.000000,29.133339 73.000000,30.600002 
	C72.328865,31.987852 71.379074,32.887745 71.034691,33.978737 
	C69.518570,38.781715 67.426674,43.117462 62.385345,45.501156 
	C63.594109,43.317879 64.920959,41.190720 65.990105,38.941090 
	C69.587982,31.370668 68.212318,24.422934 61.843391,19.007418 
	C52.926235,11.425129 42.766235,8.951589 31.070469,10.713791 
	C22.620363,11.986971 15.807277,15.312582 10.564558,21.905052 
	C5.071994,28.811691 5.471951,35.967426 9.847088,43.749786 
	C9.601878,44.442535 9.488851,44.578720 9.375822,44.714909 
z"/>
<path fill="#1C1C8B" opacity="1.000000" stroke="none" 
	d="
M35.444164,73.000000 
	C33.248894,70.794189 31.359821,68.682663 29.774855,66.363319 
	C26.265490,61.227921 25.559118,55.413616 25.981003,49.356850 
	C26.103876,47.592812 25.999887,45.812973 25.999887,43.241806 
	C24.590197,44.218231 23.851238,44.730076 22.687286,45.242271 
	C22.262293,45.242630 21.913647,44.931396 21.913647,44.931396 
	C24.153477,39.033329 29.702892,37.654835 35.276138,35.260941 
	C37.552380,34.591488 39.274460,34.213226 40.996540,33.834965 
	C45.168079,32.047886 49.339615,30.260807 54.224911,28.167955 
	C53.286911,30.050289 52.267735,32.145401 51.201962,34.216534 
	C50.505611,35.569771 49.216839,36.844231 49.100651,38.230038 
	C48.644981,43.665115 48.385788,49.130779 48.398636,54.584274 
	C48.403999,56.857811 49.772839,59.157513 49.646446,61.395893 
	C49.379581,66.122002 46.547085,69.554367 42.920933,72.648376 
	C40.629444,73.000000 38.258884,73.000000 35.444164,73.000000 
M41.882500,60.001511 
	C41.201115,60.251122 40.519730,60.500732 39.797020,60.765484 
	C41.704784,57.284771 43.457214,54.087467 45.209641,50.890163 
	C44.827251,50.704311 44.444859,50.518463 44.062469,50.332611 
	C42.260471,51.190491 40.458473,52.048370 38.007671,53.215126 
	C41.513454,47.490238 44.548607,42.533882 47.583759,37.577526 
	C47.130051,37.140141 46.676338,36.702755 46.222630,36.265369 
	C41.220081,37.798080 36.269390,39.542305 31.196018,40.786133 
	C28.027330,41.562996 27.769415,43.474049 28.152475,45.986946 
	C28.400227,47.612217 28.620768,49.272335 29.141714,50.819817 
	C31.148563,56.781197 31.225895,63.740238 37.667747,67.668579 
	C40.752388,64.034630 47.262623,63.657372 47.609383,56.518375 
	C45.529266,57.839119 44.016262,58.799778 41.882500,60.001511 
z"/>
<path fill="#000000" opacity="1.000000" stroke="none" 
	d="
M25.531321,1.000000 
	C25.366274,1.684038 24.860016,2.709251 24.079651,3.000807 
	C12.844111,7.198570 4.311588,13.797671 2.541009,26.616915 
	C2.510327,26.839058 2.046758,27.001410 1.392591,27.095831 
	C1.000000,18.408392 1.000000,9.816783 1.000000,1.000000 
	C9.019480,1.000000 17.041061,1.000000 25.531321,1.000000 
z"/>
<path fill="#000000" opacity="1.000000" stroke="none" 
	d="
M73.000000,26.531334 
	C72.376900,26.672289 71.252052,26.405861 71.203461,26.007980 
	C69.653290,13.315820 61.010746,7.143673 50.196606,2.903180 
	C49.640663,2.685182 49.218700,2.125518 48.867180,1.362464 
	C56.929317,1.000000 64.858635,1.000000 73.000000,1.000000 
	C73.000000,9.353030 73.000000,17.707850 73.000000,26.531334 
z"/>
<path fill="#FFB300" opacity="1.000000" stroke="none" 
	d="
M41.010941,33.444771 
	C39.274460,34.213226 37.552380,34.591488 35.508018,34.979301 
	C30.057671,28.542009 30.938017,17.097904 36.947620,12.085203 
	C42.206501,16.211929 43.932903,25.089811 41.010941,33.444771 
z"/>
<path fill="#AA4400" opacity="1.000000" stroke="none" 
	d="
M9.900032,44.116074 
	C10.632543,44.406837 11.179928,44.887878 11.727313,45.368916 
	C11.635586,45.531651 11.543859,45.694382 11.452131,45.857113 
	C10.879049,45.613766 10.305966,45.370415 9.554354,44.920990 
	C9.488851,44.578720 9.601878,44.442535 9.900032,44.116074 
z"/>
<path fill="#1C1C8B" opacity="1.000000" stroke="none" 
	d="
M22.417809,45.417046 
	C22.215141,45.884293 21.856960,46.177132 21.498777,46.469967 
	C21.494324,46.043385 21.489870,45.616798 21.699532,45.060806 
	C21.913647,44.931396 22.262293,45.242630 22.417809,45.417046 
z"/>
<path fill="#000000" opacity="1.000000" stroke="none" 
	d="
M42.192879,59.880974 
	C44.016262,58.799778 45.529266,57.839119 47.609383,56.518375 
	C47.262623,63.657372 40.752388,64.034630 37.667747,67.668579 
	C31.225895,63.740238 31.148563,56.781197 29.141714,50.819817 
	C28.620768,49.272335 28.400227,47.612217 28.152475,45.986946 
	C27.769415,43.474049 28.027330,41.562996 31.196018,40.786133 
	C36.269390,39.542305 41.220081,37.798080 46.222630,36.265369 
	C46.676338,36.702755 47.130051,37.140141 47.583759,37.577526 
	C44.548607,42.533882 41.513454,47.490238 38.007671,53.215126 
	C40.458473,52.048370 42.260471,51.190491 44.062469,50.332611 
	C44.444859,50.518463 44.827251,50.704311 45.209641,50.890163 
	C43.457214,54.087467 41.704784,57.284771 39.797020,60.765484 
	C40.519730,60.500732 41.201115,60.251122 42.192879,59.880974 
z"/>
</svg>